<?xml version="1.0" encoding="utf-8"?>
<!-- Generator: Adobe Illustrator 16.0.3, SVG Export Plug-In . SVG Version: 6.00 Build 0)  -->
<!DOCTYPE svg PUBLIC "-//W3C//DTD SVG 1.1//EN" "http://www.w3.org/Graphics/SVG/1.1/DTD/svg11.dtd">
<svg version="1.1"
	 id="svg8218" xmlns:dc="http://purl.org/dc/elements/1.1/" xmlns:cc="http://creativecommons.org/ns#" xmlns:rdf="http://www.w3.org/1999/02/22-rdf-syntax-ns#" xmlns:svg="http://www.w3.org/2000/svg" xmlns:sodipodi="http://sodipodi.sourceforge.net/DTD/sodipodi-0.dtd" xmlns:inkscape="http://www.inkscape.org/namespaces/inkscape" sodipodi:docname="HumbugGLLib.svg" inkscape:version="0.48+devel r10194"
	 xmlns="http://www.w3.org/2000/svg" xmlns:xlink="http://www.w3.org/1999/xlink" x="0px" y="0px" width="64px" height="64px"
	 viewBox="0 0 64 64" enable-background="new 0 0 64 64" xml:space="preserve">
<defs>
	
	
		<inkscape:perspective  inkscape:vp_x="0 : 526.18109 : 1" inkscape:vp_y="0 : 1000 : 0" inkscape:vp_z="744.09448 : 526.18109 : 1" sodipodi:type="inkscape:persp3d" id="perspective8226" inkscape:persp3d-origin="372.04724 : 350.78739 : 1">
		</inkscape:perspective>
	
		<inkscape:perspective  inkscape:vp_x="0 : 0.5 : 1" inkscape:vp_y="0 : 1000 : 0" inkscape:vp_z="1 : 0.5 : 1" sodipodi:type="inkscape:persp3d" id="perspective8210" inkscape:persp3d-origin="0.5 : 0.33333333 : 1">
		</inkscape:perspective>
	
		<inkscape:perspective  inkscape:vp_x="0 : 0.5 : 1" inkscape:vp_y="0 : 1000 : 0" inkscape:vp_z="1 : 0.5 : 1" sodipodi:type="inkscape:persp3d" id="perspective8251" inkscape:persp3d-origin="0.5 : 0.33333333 : 1">
		</inkscape:perspective>
	
		<inkscape:perspective  inkscape:vp_x="0 : 0.5 : 1" inkscape:vp_y="0 : 1000 : 0" inkscape:vp_z="1 : 0.5 : 1" sodipodi:type="inkscape:persp3d" id="perspective8282" inkscape:persp3d-origin="0.5 : 0.33333333 : 1">
		</inkscape:perspective>
	
		<inkscape:perspective  inkscape:vp_x="0 : 0.5 : 1" inkscape:vp_y="0 : 1000 : 0" inkscape:vp_z="1 : 0.5 : 1" sodipodi:type="inkscape:persp3d" id="perspective8313" inkscape:persp3d-origin="0.5 : 0.33333333 : 1">
		</inkscape:perspective>
	
		<inkscape:perspective  inkscape:vp_x="0 : 0.5 : 1" inkscape:vp_y="0 : 1000 : 0" inkscape:vp_z="1 : 0.5 : 1" sodipodi:type="inkscape:persp3d" id="perspective8350" inkscape:persp3d-origin="0.5 : 0.33333333 : 1">
		</inkscape:perspective>
	
		<inkscape:perspective  inkscape:vp_x="0 : 0.5 : 1" inkscape:vp_y="0 : 1000 : 0" inkscape:vp_z="1 : 0.5 : 1" sodipodi:type="inkscape:persp3d" id="perspective8381" inkscape:persp3d-origin="0.5 : 0.33333333 : 1">
		</inkscape:perspective>
	
		<inkscape:perspective  inkscape:vp_x="0 : 0.5 : 1" inkscape:vp_y="0 : 1000 : 0" inkscape:vp_z="1 : 0.5 : 1" sodipodi:type="inkscape:persp3d" id="perspective13950" inkscape:persp3d-origin="0.5 : 0.33333333 : 1">
		</inkscape:perspective>
	
		<inkscape:perspective  inkscape:vp_x="0 : 0.5 : 1" inkscape:vp_y="0 : 1000 : 0" inkscape:vp_z="1 : 0.5 : 1" sodipodi:type="inkscape:persp3d" id="perspective13981" inkscape:persp3d-origin="0.5 : 0.33333333 : 1">
		</inkscape:perspective>
	
		<inkscape:perspective  inkscape:vp_x="0 : 0.5 : 1" inkscape:vp_y="0 : 1000 : 0" inkscape:vp_z="1 : 0.5 : 1" sodipodi:type="inkscape:persp3d" id="perspective14012" inkscape:persp3d-origin="0.5 : 0.33333333 : 1">
		</inkscape:perspective>
	
		<inkscape:perspective  inkscape:vp_x="0 : 0.5 : 1" inkscape:vp_y="0 : 1000 : 0" inkscape:vp_z="1 : 0.5 : 1" sodipodi:type="inkscape:persp3d" id="perspective14436" inkscape:persp3d-origin="0.5 : 0.33333333 : 1">
		</inkscape:perspective>
	
		<inkscape:perspective  inkscape:vp_x="0 : 0.5 : 1" inkscape:vp_y="0 : 1000 : 0" inkscape:vp_z="1 : 0.5 : 1" sodipodi:type="inkscape:persp3d" id="perspective14464" inkscape:persp3d-origin="0.5 : 0.33333333 : 1">
		</inkscape:perspective>
	
		<inkscape:perspective  inkscape:vp_x="0 : 0.5 : 1" inkscape:vp_y="0 : 1000 : 0" inkscape:vp_z="1 : 0.5 : 1" sodipodi:type="inkscape:persp3d" id="perspective14498" inkscape:persp3d-origin="0.5 : 0.33333333 : 1">
		</inkscape:perspective>
	
		<inkscape:perspective  inkscape:vp_x="0 : 0.5 : 1" inkscape:vp_y="0 : 1000 : 0" inkscape:vp_z="1 : 0.5 : 1" sodipodi:type="inkscape:persp3d" id="perspective16768" inkscape:persp3d-origin="0.5 : 0.33333333 : 1">
		</inkscape:perspective>
	
		<inkscape:perspective  inkscape:vp_x="0 : 0.5 : 1" inkscape:vp_y="0 : 1000 : 0" inkscape:vp_z="1 : 0.5 : 1" sodipodi:type="inkscape:persp3d" id="perspective16799" inkscape:persp3d-origin="0.5 : 0.33333333 : 1">
		</inkscape:perspective>
	
		<inkscape:perspective  inkscape:vp_x="0 : 0.5 : 1" inkscape:vp_y="0 : 1000 : 0" inkscape:vp_z="1 : 0.5 : 1" sodipodi:type="inkscape:persp3d" id="perspective22223" inkscape:persp3d-origin="0.5 : 0.33333333 : 1">
		</inkscape:perspective>
	
		<inkscape:perspective  inkscape:vp_x="0 : 0.5 : 1" inkscape:vp_y="0 : 1000 : 0" inkscape:vp_z="1 : 0.5 : 1" sodipodi:type="inkscape:persp3d" id="perspective22251" inkscape:persp3d-origin="0.5 : 0.33333333 : 1">
		</inkscape:perspective>
	
		<inkscape:perspective  inkscape:vp_x="0 : 0.5 : 1" inkscape:vp_y="0 : 1000 : 0" inkscape:vp_z="1 : 0.5 : 1" sodipodi:type="inkscape:persp3d" id="perspective22279" inkscape:persp3d-origin="0.5 : 0.33333333 : 1">
		</inkscape:perspective>
	
		<inkscape:perspective  inkscape:vp_x="0 : 0.5 : 1" inkscape:vp_y="0 : 1000 : 0" inkscape:vp_z="1 : 0.5 : 1" sodipodi:type="inkscape:persp3d" id="perspective22307" inkscape:persp3d-origin="0.5 : 0.33333333 : 1">
		</inkscape:perspective>
	
		<inkscape:perspective  inkscape:vp_x="0 : 0.5 : 1" inkscape:vp_y="0 : 1000 : 0" inkscape:vp_z="1 : 0.5 : 1" sodipodi:type="inkscape:persp3d" id="perspective22335" inkscape:persp3d-origin="0.5 : 0.33333333 : 1">
		</inkscape:perspective>
	
		<inkscape:perspective  inkscape:vp_x="0 : 0.5 : 1" inkscape:vp_y="0 : 1000 : 0" inkscape:vp_z="1 : 0.5 : 1" sodipodi:type="inkscape:persp3d" id="perspective22363" inkscape:persp3d-origin="0.5 : 0.33333333 : 1">
		</inkscape:perspective>
	
		<inkscape:perspective  inkscape:vp_x="0 : 0.5 : 1" inkscape:vp_y="0 : 1000 : 0" inkscape:vp_z="1 : 0.5 : 1" sodipodi:type="inkscape:persp3d" id="perspective27783" inkscape:persp3d-origin="0.5 : 0.33333333 : 1">
		</inkscape:perspective>
	
		<inkscape:perspective  inkscape:vp_x="0 : 0.5 : 1" inkscape:vp_y="0 : 1000 : 0" inkscape:vp_z="1 : 0.5 : 1" sodipodi:type="inkscape:persp3d" id="perspective27811" inkscape:persp3d-origin="0.5 : 0.33333333 : 1">
		</inkscape:perspective>
	
		<inkscape:perspective  inkscape:vp_x="0 : 0.5 : 1" inkscape:vp_y="0 : 1000 : 0" inkscape:vp_z="1 : 0.5 : 1" sodipodi:type="inkscape:persp3d" id="perspective27839" inkscape:persp3d-origin="0.5 : 0.33333333 : 1">
		</inkscape:perspective>
	
		<inkscape:perspective  inkscape:vp_x="0 : 0.5 : 1" inkscape:vp_y="0 : 1000 : 0" inkscape:vp_z="1 : 0.5 : 1" sodipodi:type="inkscape:persp3d" id="perspective27867" inkscape:persp3d-origin="0.5 : 0.33333333 : 1">
		</inkscape:perspective>
	
		<inkscape:perspective  inkscape:vp_x="0 : 0.5 : 1" inkscape:vp_y="0 : 1000 : 0" inkscape:vp_z="1 : 0.5 : 1" sodipodi:type="inkscape:persp3d" id="perspective27907" inkscape:persp3d-origin="0.5 : 0.33333333 : 1">
		</inkscape:perspective>
	
		<inkscape:perspective  inkscape:vp_x="0 : 0.5 : 1" inkscape:vp_y="0 : 1000 : 0" inkscape:vp_z="1 : 0.5 : 1" sodipodi:type="inkscape:persp3d" id="perspective27935" inkscape:persp3d-origin="0.5 : 0.33333333 : 1">
		</inkscape:perspective>
	
		<inkscape:perspective  inkscape:vp_x="0 : 0.5 : 1" inkscape:vp_y="0 : 1000 : 0" inkscape:vp_z="1 : 0.5 : 1" sodipodi:type="inkscape:persp3d" id="perspective33349" inkscape:persp3d-origin="0.5 : 0.33333333 : 1">
		</inkscape:perspective>
	
		<inkscape:perspective  inkscape:vp_x="0 : 0.5 : 1" inkscape:vp_y="0 : 1000 : 0" inkscape:vp_z="1 : 0.5 : 1" sodipodi:type="inkscape:persp3d" id="perspective33377" inkscape:persp3d-origin="0.5 : 0.33333333 : 1">
		</inkscape:perspective>
	
		<inkscape:perspective  inkscape:vp_x="0 : 0.5 : 1" inkscape:vp_y="0 : 1000 : 0" inkscape:vp_z="1 : 0.5 : 1" sodipodi:type="inkscape:persp3d" id="perspective33405" inkscape:persp3d-origin="0.5 : 0.33333333 : 1">
		</inkscape:perspective>
	
		<inkscape:perspective  inkscape:vp_x="0 : 0.5 : 1" inkscape:vp_y="0 : 1000 : 0" inkscape:vp_z="1 : 0.5 : 1" sodipodi:type="inkscape:persp3d" id="perspective33433" inkscape:persp3d-origin="0.5 : 0.33333333 : 1">
		</inkscape:perspective>
	
		<inkscape:perspective  inkscape:vp_x="0 : 0.5 : 1" inkscape:vp_y="0 : 1000 : 0" inkscape:vp_z="1 : 0.5 : 1" sodipodi:type="inkscape:persp3d" id="perspective33461" inkscape:persp3d-origin="0.5 : 0.33333333 : 1">
		</inkscape:perspective>
	
		<inkscape:perspective  inkscape:vp_x="0 : 0.5 : 1" inkscape:vp_y="0 : 1000 : 0" inkscape:vp_z="1 : 0.5 : 1" sodipodi:type="inkscape:persp3d" id="perspective33495" inkscape:persp3d-origin="0.5 : 0.33333333 : 1">
		</inkscape:perspective>
</defs>
<path id="path31143" inkscape:connector-curvature="0" fill="#F9D100" d="M32.351,7.929l0.096,0.096h0.478l0.191,0.096h0.096
	l0.191,0.096l0.191,0.096l0.191,0.096l0.191,0.096l0.096,0.191l0.096,0.096l0.191,0.096l0.096,0.191l0.286,0.287l11.69,20.272
	l11.57,20.176l0.096,0.191l0.096,0.19l0.096,0.191l0.096,0.191v0.479l0.096,0.191l-0.096,0.287v0.382l-0.096,0.191l-0.096,0.19
	v0.191l-0.191,0.191l-0.096,0.191l-0.096,0.096l-0.096,0.096l-0.096,0.097l-0.096,0.19l-0.096,0.097l-0.191,0.096l-0.191,0.097
	l-0.191,0.096l-0.095,0.096l-0.191,0.096h-0.191l-0.19,0.096h-0.383l-0.191,0.096H32.255l-23.26-0.096H8.325L8.134,53.93H7.943
	l-0.191-0.096l-0.095-0.096l-0.191-0.096l-0.191-0.097L7.083,53.45l-0.191-0.191l-0.096-0.097L6.7,52.972l-0.096-0.097l-0.095-0.19
	l-0.191-0.191v-0.19l-0.096-0.097v-0.19l-0.096-0.097v-0.382L6.03,51.25l0.096-0.191V50.58l0.096-0.191l0.096-0.191v-0.191
	l0.191-0.19l11.57-20.176l11.69-20.177l0.096-0.191l0.191-0.191l0.096-0.191l0.096-0.096l0.287-0.287l0.191-0.096l0.096-0.096
	l0.287-0.096l0.191-0.096h0.191l0.191-0.096h0.479L32.351,7.929"/>
<sodipodi:namedview  showguides="true" showgrid="false" pagecolor="#ffffff" inkscape:zoom="0.98994949" inkscape:cy="64.510165" inkscape:cx="-62.981503" borderopacity="1.0" bordercolor="#666666" id="base" inkscape:window-y="-4" inkscape:window-x="-4" inkscape:window-width="1280" inkscape:window-maximized="1" inkscape:window-height="774" inkscape:pageshadow="2" inkscape:pageopacity="0.0" inkscape:guide-bbox="true" inkscape:document-units="px" inkscape:current-layer="layer1">
	</sodipodi:namedview>
<g id="layer1" transform="translate(0,-988.36218)" inkscape:label="Layer 1" inkscape:groupmode="layer">
	<path id="path31145" inkscape:connector-curvature="0" fill="#1F1A17" d="M32.542,997.726l0.096,0.096l0.19,0.096l0.191,0.096
		h0.096l0.096,0.191l0.287,0.287l23.261,40.353l0.095,0.096l0.096,0.097v0.19l0.096,0.097v0.382l-0.096,0.287l-0.096,0.191
		l-0.095,0.191l-0.191,0.191l-0.191,0.191l-0.382,0.191l-0.287,0.096H8.708l-0.096-0.096H8.421l-0.096-0.097H8.23l-0.096-0.096
		l-0.191-0.097l-0.191-0.191l-0.095-0.286l-0.096-0.19l-0.096-0.287v-0.191l0.096-0.287l0.096-0.191v-0.191h0.095l23.261-40.353
		v-0.096l0.095-0.096l0.096-0.096l0.096-0.096l0.191-0.191h0.096l0.095-0.096h0.287l0.096-0.096L32.542,997.726L32.542,997.726z
		 M52.168,1037.6H12.342l19.913-34.52L52.168,1037.6"/>
</g>
<path id="path31147" inkscape:connector-curvature="0" fill="#A31924" d="M34.933,37.859l2.868-1.721l2.009,1.146l1.243-0.668
	v-1.244l-0.861-0.574l0.861-0.478v-1.53l-1.339-0.765l-0.86,0.478l-0.096-0.956l-1.053-0.669l-1.146,0.669v2.295l-2.965,1.721
	v-3.347l1.912-1.243v-1.339l-1.051-0.574l-0.861,0.383v-0.957l-1.339-0.765l-1.338,0.765v0.957l-0.861-0.383l-1.052,0.574v1.339
	l1.913,1.243v3.347l-2.869-1.721l-0.096-2.295l-1.147-0.669l-1.052,0.669l-0.096,0.956l-0.861-0.478l-1.339,0.765v1.53l0.861,0.478
	l-0.861,0.574v1.244l1.243,0.668l2.008-1.146l2.869,1.721l-2.869,1.721l-2.008-1.146l-1.243,0.765v1.147l0.861,0.574l-0.861,0.478
	v1.53l1.339,0.766l0.861-0.479l0.096,1.051l1.052,0.574l1.147-0.67v-2.295l2.964-1.721v3.443l-1.913,1.146v1.339l1.052,0.669
	l0.861-0.478v0.956l1.338,0.766l1.339-0.766v-0.956l0.861,0.478l1.051-0.669v-1.339l-1.912-1.146v-3.443l2.869,1.721l0.096,2.295
	l1.146,0.67l1.053-0.574l0.096-1.051l0.86,0.479l1.339-0.766v-1.53l-0.861-0.478l0.861-0.574v-1.147l-1.243-0.765l-2.009,1.146
	L34.933,37.859"/>
</svg>
