<?xml version="1.0" encoding="UTF-8" standalone="no"?>
<!-- Created with Inkscape (http://www.inkscape.org/) -->

<svg
   xmlns:dc="http://purl.org/dc/elements/1.1/"
   xmlns:cc="http://creativecommons.org/ns#"
   xmlns:rdf="http://www.w3.org/1999/02/22-rdf-syntax-ns#"
   xmlns:svg="http://www.w3.org/2000/svg"
   xmlns="http://www.w3.org/2000/svg"
   xmlns:sodipodi="http://sodipodi.sourceforge.net/DTD/sodipodi-0.dtd"
   xmlns:inkscape="http://www.inkscape.org/namespaces/inkscape"
   height="64"
   id="svg8218"
   inkscape:version="0.48+devel r10194"
   sodipodi:docname="HumbugLib.svg"
   version="1.1"
   width="64">
  <metadata
     id="metadata3">
    <rdf:RDF>
      <cc:Work
         rdf:about="">
        <dc:title />
        <dc:description />
        <dc:subject>
          <rdf:Bag>
            <rdf:li>unsorted</rdf:li>
          </rdf:Bag>
        </dc:subject>
        <dc:publisher>
          <cc:Agent
             rdf:about="http://www.openclipart.org/">
            <dc:title>Open Clip Art Library, Source: Technische Regeln für Arbeitsstätten (DIN Standard)</dc:title>
          </cc:Agent>
        </dc:publisher>
        <dc:creator>
          <cc:Agent>
            <dc:title />
          </cc:Agent>
        </dc:creator>
        <dc:rights>
          <cc:Agent>
            <dc:title />
          </cc:Agent>
        </dc:rights>
        <dc:date />
        <dc:format>image/svg+xml</dc:format>
        <dc:type
           rdf:resource="http://purl.org/dc/dcmitype/StillImage" />
        <cc:license
           rdf:resource="http://en.wikipedia.org/wiki/Public_domain" />
        <dc:language>en</dc:language>
      </cc:Work>
    </rdf:RDF>
  </metadata>
  <defs
     id="defs8220">
    <inkscape:perspective
       id="perspective8226"
       inkscape:persp3d-origin="372.04724 : 350.78739 : 1"
       inkscape:vp_x="0 : 526.18109 : 1"
       inkscape:vp_y="0 : 1000 : 0"
       inkscape:vp_z="744.09448 : 526.18109 : 1"
       sodipodi:type="inkscape:persp3d" />
    <inkscape:perspective
       id="perspective8210"
       inkscape:persp3d-origin="0.5 : 0.33333333 : 1"
       inkscape:vp_x="0 : 0.5 : 1"
       inkscape:vp_y="0 : 1000 : 0"
       inkscape:vp_z="1 : 0.5 : 1"
       sodipodi:type="inkscape:persp3d" />
    <inkscape:perspective
       id="perspective8251"
       inkscape:persp3d-origin="0.5 : 0.33333333 : 1"
       inkscape:vp_x="0 : 0.5 : 1"
       inkscape:vp_y="0 : 1000 : 0"
       inkscape:vp_z="1 : 0.5 : 1"
       sodipodi:type="inkscape:persp3d" />
    <inkscape:perspective
       id="perspective8282"
       inkscape:persp3d-origin="0.5 : 0.33333333 : 1"
       inkscape:vp_x="0 : 0.5 : 1"
       inkscape:vp_y="0 : 1000 : 0"
       inkscape:vp_z="1 : 0.5 : 1"
       sodipodi:type="inkscape:persp3d" />
    <inkscape:perspective
       id="perspective8313"
       inkscape:persp3d-origin="0.5 : 0.33333333 : 1"
       inkscape:vp_x="0 : 0.5 : 1"
       inkscape:vp_y="0 : 1000 : 0"
       inkscape:vp_z="1 : 0.5 : 1"
       sodipodi:type="inkscape:persp3d" />
    <inkscape:perspective
       id="perspective8350"
       inkscape:persp3d-origin="0.5 : 0.33333333 : 1"
       inkscape:vp_x="0 : 0.5 : 1"
       inkscape:vp_y="0 : 1000 : 0"
       inkscape:vp_z="1 : 0.5 : 1"
       sodipodi:type="inkscape:persp3d" />
    <inkscape:perspective
       id="perspective8381"
       inkscape:persp3d-origin="0.5 : 0.33333333 : 1"
       inkscape:vp_x="0 : 0.5 : 1"
       inkscape:vp_y="0 : 1000 : 0"
       inkscape:vp_z="1 : 0.5 : 1"
       sodipodi:type="inkscape:persp3d" />
    <inkscape:perspective
       id="perspective13950"
       inkscape:persp3d-origin="0.5 : 0.33333333 : 1"
       inkscape:vp_x="0 : 0.5 : 1"
       inkscape:vp_y="0 : 1000 : 0"
       inkscape:vp_z="1 : 0.5 : 1"
       sodipodi:type="inkscape:persp3d" />
    <inkscape:perspective
       id="perspective13981"
       inkscape:persp3d-origin="0.5 : 0.33333333 : 1"
       inkscape:vp_x="0 : 0.5 : 1"
       inkscape:vp_y="0 : 1000 : 0"
       inkscape:vp_z="1 : 0.5 : 1"
       sodipodi:type="inkscape:persp3d" />
    <inkscape:perspective
       id="perspective14012"
       inkscape:persp3d-origin="0.5 : 0.33333333 : 1"
       inkscape:vp_x="0 : 0.5 : 1"
       inkscape:vp_y="0 : 1000 : 0"
       inkscape:vp_z="1 : 0.5 : 1"
       sodipodi:type="inkscape:persp3d" />
    <inkscape:perspective
       id="perspective14436"
       inkscape:persp3d-origin="0.5 : 0.33333333 : 1"
       inkscape:vp_x="0 : 0.5 : 1"
       inkscape:vp_y="0 : 1000 : 0"
       inkscape:vp_z="1 : 0.5 : 1"
       sodipodi:type="inkscape:persp3d" />
    <inkscape:perspective
       id="perspective14464"
       inkscape:persp3d-origin="0.5 : 0.33333333 : 1"
       inkscape:vp_x="0 : 0.5 : 1"
       inkscape:vp_y="0 : 1000 : 0"
       inkscape:vp_z="1 : 0.5 : 1"
       sodipodi:type="inkscape:persp3d" />
    <inkscape:perspective
       id="perspective14498"
       inkscape:persp3d-origin="0.5 : 0.33333333 : 1"
       inkscape:vp_x="0 : 0.5 : 1"
       inkscape:vp_y="0 : 1000 : 0"
       inkscape:vp_z="1 : 0.5 : 1"
       sodipodi:type="inkscape:persp3d" />
    <inkscape:perspective
       id="perspective16768"
       inkscape:persp3d-origin="0.5 : 0.33333333 : 1"
       inkscape:vp_x="0 : 0.5 : 1"
       inkscape:vp_y="0 : 1000 : 0"
       inkscape:vp_z="1 : 0.5 : 1"
       sodipodi:type="inkscape:persp3d" />
    <inkscape:perspective
       id="perspective16799"
       inkscape:persp3d-origin="0.5 : 0.33333333 : 1"
       inkscape:vp_x="0 : 0.5 : 1"
       inkscape:vp_y="0 : 1000 : 0"
       inkscape:vp_z="1 : 0.5 : 1"
       sodipodi:type="inkscape:persp3d" />
    <inkscape:perspective
       id="perspective22223"
       inkscape:persp3d-origin="0.5 : 0.33333333 : 1"
       inkscape:vp_x="0 : 0.5 : 1"
       inkscape:vp_y="0 : 1000 : 0"
       inkscape:vp_z="1 : 0.5 : 1"
       sodipodi:type="inkscape:persp3d" />
    <inkscape:perspective
       id="perspective22251"
       inkscape:persp3d-origin="0.5 : 0.33333333 : 1"
       inkscape:vp_x="0 : 0.5 : 1"
       inkscape:vp_y="0 : 1000 : 0"
       inkscape:vp_z="1 : 0.5 : 1"
       sodipodi:type="inkscape:persp3d" />
    <inkscape:perspective
       id="perspective22279"
       inkscape:persp3d-origin="0.5 : 0.33333333 : 1"
       inkscape:vp_x="0 : 0.5 : 1"
       inkscape:vp_y="0 : 1000 : 0"
       inkscape:vp_z="1 : 0.5 : 1"
       sodipodi:type="inkscape:persp3d" />
    <inkscape:perspective
       id="perspective22307"
       inkscape:persp3d-origin="0.5 : 0.33333333 : 1"
       inkscape:vp_x="0 : 0.5 : 1"
       inkscape:vp_y="0 : 1000 : 0"
       inkscape:vp_z="1 : 0.5 : 1"
       sodipodi:type="inkscape:persp3d" />
    <inkscape:perspective
       id="perspective22335"
       inkscape:persp3d-origin="0.5 : 0.33333333 : 1"
       inkscape:vp_x="0 : 0.5 : 1"
       inkscape:vp_y="0 : 1000 : 0"
       inkscape:vp_z="1 : 0.5 : 1"
       sodipodi:type="inkscape:persp3d" />
    <inkscape:perspective
       id="perspective22363"
       inkscape:persp3d-origin="0.5 : 0.33333333 : 1"
       inkscape:vp_x="0 : 0.5 : 1"
       inkscape:vp_y="0 : 1000 : 0"
       inkscape:vp_z="1 : 0.5 : 1"
       sodipodi:type="inkscape:persp3d" />
    <inkscape:perspective
       id="perspective27783"
       inkscape:persp3d-origin="0.5 : 0.33333333 : 1"
       inkscape:vp_x="0 : 0.5 : 1"
       inkscape:vp_y="0 : 1000 : 0"
       inkscape:vp_z="1 : 0.5 : 1"
       sodipodi:type="inkscape:persp3d" />
    <inkscape:perspective
       id="perspective27811"
       inkscape:persp3d-origin="0.5 : 0.33333333 : 1"
       inkscape:vp_x="0 : 0.5 : 1"
       inkscape:vp_y="0 : 1000 : 0"
       inkscape:vp_z="1 : 0.5 : 1"
       sodipodi:type="inkscape:persp3d" />
    <inkscape:perspective
       id="perspective27839"
       inkscape:persp3d-origin="0.5 : 0.33333333 : 1"
       inkscape:vp_x="0 : 0.5 : 1"
       inkscape:vp_y="0 : 1000 : 0"
       inkscape:vp_z="1 : 0.5 : 1"
       sodipodi:type="inkscape:persp3d" />
    <inkscape:perspective
       id="perspective27867"
       inkscape:persp3d-origin="0.5 : 0.33333333 : 1"
       inkscape:vp_x="0 : 0.5 : 1"
       inkscape:vp_y="0 : 1000 : 0"
       inkscape:vp_z="1 : 0.5 : 1"
       sodipodi:type="inkscape:persp3d" />
    <clipPath
       clipPathUnits="userSpaceOnUse"
       id="clipPath23999">
      <path
         d="m 304.32,421.22 135.42,0 0,119.1 -135.42,0 0,-119.1 z"
         id="path24001"
         inkscape:connector-curvature="0" />
    </clipPath>
    <inkscape:perspective
       id="perspective27907"
       inkscape:persp3d-origin="0.5 : 0.33333333 : 1"
       inkscape:vp_x="0 : 0.5 : 1"
       inkscape:vp_y="0 : 1000 : 0"
       inkscape:vp_z="1 : 0.5 : 1"
       sodipodi:type="inkscape:persp3d" />
    <inkscape:perspective
       id="perspective27935"
       inkscape:persp3d-origin="0.5 : 0.33333333 : 1"
       inkscape:vp_x="0 : 0.5 : 1"
       inkscape:vp_y="0 : 1000 : 0"
       inkscape:vp_z="1 : 0.5 : 1"
       sodipodi:type="inkscape:persp3d" />
    <inkscape:perspective
       id="perspective33349"
       inkscape:persp3d-origin="0.5 : 0.33333333 : 1"
       inkscape:vp_x="0 : 0.5 : 1"
       inkscape:vp_y="0 : 1000 : 0"
       inkscape:vp_z="1 : 0.5 : 1"
       sodipodi:type="inkscape:persp3d" />
    <inkscape:perspective
       id="perspective33377"
       inkscape:persp3d-origin="0.5 : 0.33333333 : 1"
       inkscape:vp_x="0 : 0.5 : 1"
       inkscape:vp_y="0 : 1000 : 0"
       inkscape:vp_z="1 : 0.5 : 1"
       sodipodi:type="inkscape:persp3d" />
    <inkscape:perspective
       id="perspective33405"
       inkscape:persp3d-origin="0.5 : 0.33333333 : 1"
       inkscape:vp_x="0 : 0.5 : 1"
       inkscape:vp_y="0 : 1000 : 0"
       inkscape:vp_z="1 : 0.5 : 1"
       sodipodi:type="inkscape:persp3d" />
    <inkscape:perspective
       id="perspective33433"
       inkscape:persp3d-origin="0.5 : 0.33333333 : 1"
       inkscape:vp_x="0 : 0.5 : 1"
       inkscape:vp_y="0 : 1000 : 0"
       inkscape:vp_z="1 : 0.5 : 1"
       sodipodi:type="inkscape:persp3d" />
    <inkscape:perspective
       id="perspective33461"
       inkscape:persp3d-origin="0.5 : 0.33333333 : 1"
       inkscape:vp_x="0 : 0.5 : 1"
       inkscape:vp_y="0 : 1000 : 0"
       inkscape:vp_z="1 : 0.5 : 1"
       sodipodi:type="inkscape:persp3d" />
    <inkscape:perspective
       id="perspective33495"
       inkscape:persp3d-origin="0.5 : 0.33333333 : 1"
       inkscape:vp_x="0 : 0.5 : 1"
       inkscape:vp_y="0 : 1000 : 0"
       inkscape:vp_z="1 : 0.5 : 1"
       sodipodi:type="inkscape:persp3d" />
  </defs>
  <sodipodi:namedview
     bordercolor="#666666"
     borderopacity="1.0"
     id="base"
     inkscape:current-layer="layer1"
     inkscape:cx="-62.981503"
     inkscape:cy="64.510165"
     inkscape:document-units="px"
     inkscape:guide-bbox="true"
     inkscape:pageopacity="0.0"
     inkscape:pageshadow="2"
     inkscape:window-height="774"
     inkscape:window-maximized="1"
     inkscape:window-width="1280"
     inkscape:window-x="-4"
     inkscape:window-y="-4"
     inkscape:zoom="0.98994949"
     pagecolor="#ffffff"
     showgrid="false"
     showguides="true" />
  <g
     id="layer1"
     inkscape:groupmode="layer"
     inkscape:label="Layer 1"
     transform="translate(0,-988.36218)">
    <path
       d="m 32.350741,996.2916 0.09562,0.096 0.478116,0 0.191247,0.096 0.09562,0 0.191247,0.096 0.191246,0.096 0.191247,0.096 0.191246,0.096 0.09562,0.1913 0.09562,0.096 0.191247,0.096 0.09562,0.1912 0.28687,0.2869 11.689947,20.2721 11.570417,20.1765 0.09562,0.1912 0.09562,0.1913 0.09562,0.1912 0.09562,0.1913 0,0.4781 0.09562,0.1912 -0.09562,0.2869 0,0.3825 -0.09562,0.1912 -0.09562,0.1913 0,0.1912 -0.191247,0.1913 -0.09562,0.1912 -0.09562,0.096 -0.09562,0.096 -0.09562,0.096 -0.09562,0.1912 -0.09562,0.096 -0.191246,0.096 -0.191247,0.096 -0.191246,0.096 -0.09562,0.096 -0.191246,0.096 -0.191247,0 -0.191246,0.096 -0.382493,0 -0.191247,0.096 -23.355988,0 -23.2603622,-0.096 -0.669363,0 -0.191246,-0.096 -0.191247,0 -0.191246,-0.096 -0.09562,-0.096 -0.191247,-0.096 -0.191247,-0.096 -0.191246,-0.096 -0.191247,-0.1913 -0.09562,-0.096 -0.09562,-0.1912 -0.09562,-0.096 -0.09562,-0.1912 -0.191246,-0.1913 0,-0.1912 -0.09562,-0.096 0,-0.1913 -0.09562,-0.096 0,-0.3825 -0.09562,-0.2869 0.09562,-0.1912 0,-0.4781 0.09562,-0.1913 0.09562,-0.1912 0,-0.1913 0.191246,-0.1912 11.5704172,-20.1765 11.689945,-20.1765 0.09562,-0.1912 0.191247,-0.1913 0.09562,-0.1912 0.09562,-0.096 0.28687,-0.2869 0.191247,-0.096 0.09562,-0.096 0.28687,-0.096 0.191247,-0.096 0.191246,0 0.191247,-0.096 0.478116,0 0.191247,-0.096"
       id="path31143"
       style="fill:#f9d100;fill-opacity:1;fill-rule:evenodd;stroke:none"
       inkscape:connector-curvature="0" />
    <path
       d="m 32.541985,997.726 0.09562,0.096 0.191247,0.096 0.191247,0.096 0.09562,0 0.09562,0.1912 0.28687,0.2869 23.260364,40.3529 0.09562,0.096 0.09562,0.096 0,0.1912 0.09562,0.096 0,0.3825 -0.09562,0.2868 -0.09562,0.1913 -0.09562,0.1912 -0.191246,0.1913 -0.191247,0.1912 -0.382493,0.1913 -0.28687,0.096 -46.9988422,0 -0.09562,-0.096 -0.191247,0 -0.09562,-0.096 -0.09562,0 -0.09562,-0.096 -0.191246,-0.096 -0.191247,-0.1913 -0.09562,-0.2868 -0.09562,-0.1913 -0.09562,-0.2868 0,-0.1913 0.09562,-0.2869 0.09562,-0.1912 0,-0.1913 0.09562,0 23.2603622,-40.3529 0,-0.096 0.09562,-0.096 0.09562,-0.096 0.09562,-0.096 0.191246,-0.1913 0.09562,0 0.09562,-0.096 0.286869,0 0.09562,-0.096 0.478116,0 z m 19.62668,39.8748 -39.827097,0 19.913547,-34.52 19.91355,34.52"
       id="path31145"
       style="fill:#1f1a17;fill-opacity:1;fill-rule:evenodd;stroke:none"
       inkscape:connector-curvature="0" />
    <path
       d="m 34.93255,1026.2217 2.8687,-1.7212 2.008089,1.1474 1.243102,-0.6693 0,-1.2431 -0.860609,-0.5738 0.860609,-0.4781 0,-1.53 -1.338725,-0.7649 -0.86061,0.4781 -0.09562,-0.9563 -1.051856,-0.6693 -1.147481,0.6693 0,2.295 -2.964322,1.7212 0,-3.3468 1.912466,-1.2431 0,-1.3387 -1.051856,-0.5738 -0.86061,0.3825 0,-0.9562 -1.338726,-0.765 -1.338726,0.765 0,0.9562 -0.860609,-0.3825 -1.051856,0.5738 0,1.3387 1.912465,1.2431 0,3.3468 -2.868698,-1.7212 -0.09562,-2.295 -1.14748,-0.6693 -1.051856,0.6693 -0.09562,0.9563 -0.86061,-0.4781 -1.338724,0.7649 0,1.53 0.860609,0.4781 -0.860609,0.5738 0,1.2431 1.243101,0.6693 2.008089,-1.1474 2.868698,1.7212 -2.868698,1.7212 -2.008089,-1.1475 -1.243101,0.765 0,1.1475 0.860609,0.5737 -0.860609,0.4781 0,1.53 1.338724,0.765 0.86061,-0.4781 0.09562,1.0518 1.051856,0.5738 1.14748,-0.6694 0,-2.2949 2.964321,-1.7213 0,3.4425 -1.912465,1.1475 0,1.3387 1.051856,0.6693 0.860609,-0.4781 0,0.9563 1.338726,0.7649 1.338726,-0.7649 0,-0.9563 0.86061,0.4781 1.051856,-0.6693 0,-1.3387 -1.912466,-1.1475 0,-3.4425 2.868699,1.7213 0.09562,2.2949 1.147481,0.6694 1.051856,-0.5738 0.09562,-1.0518 0.86061,0.4781 1.338725,-0.765 0,-1.53 -0.860609,-0.4781 0.860609,-0.5737 0,-1.1475 -1.243102,-0.765 -2.008089,1.1475 -2.8687,-1.7212"
       id="path31147"
       style="fill:#1f1a17;fill-opacity:1;fill-rule:evenodd;stroke:none"
       inkscape:connector-curvature="0" />
  </g>
</svg>
