<?xml version="1.0" encoding="utf-8"?>
<!-- Generator: Adobe Illustrator 16.0.3, SVG Export Plug-In . SVG Version: 6.00 Build 0)  -->
<!DOCTYPE svg PUBLIC "-//W3C//DTD SVG 1.1//EN" "http://www.w3.org/Graphics/SVG/1.1/DTD/svg11.dtd">
<svg version="1.1"
	 id="svg8218" xmlns:dc="http://purl.org/dc/elements/1.1/" xmlns:cc="http://creativecommons.org/ns#" xmlns:rdf="http://www.w3.org/1999/02/22-rdf-syntax-ns#" xmlns:svg="http://www.w3.org/2000/svg" xmlns:sodipodi="http://sodipodi.sourceforge.net/DTD/sodipodi-0.dtd" xmlns:inkscape="http://www.inkscape.org/namespaces/inkscape" inkscape:version="0.48+devel r10194" sodipodi:docname="HumbugGLLib.svg"
	 xmlns="http://www.w3.org/2000/svg" xmlns:xlink="http://www.w3.org/1999/xlink" x="0px" y="0px" width="64px" height="64px"
	 viewBox="0 0 64 64" enable-background="new 0 0 64 64" xml:space="preserve">
<symbol  id="Planet" viewBox="-49.285 -43.848 98.568 87.696">
	<g>
		<g>
			
				<radialGradient id="SVGID_1_" cx="3.498" cy="10.6758" r="55.0789" gradientTransform="matrix(1.0001 0 0 1.0001 -0.5625 0.7881)" gradientUnits="userSpaceOnUse">
				<stop  offset="0" style="stop-color:#FFFFFF"/>
				<stop  offset="0.0809" style="stop-color:#E0DAEA"/>
				<stop  offset="0.194" style="stop-color:#BBADD0"/>
				<stop  offset="0.3119" style="stop-color:#9C86BA"/>
				<stop  offset="0.4329" style="stop-color:#8266A8"/>
				<stop  offset="0.5583" style="stop-color:#6E4E9A"/>
				<stop  offset="0.6896" style="stop-color:#5F3D90"/>
				<stop  offset="0.8309" style="stop-color:#57328A"/>
				<stop  offset="1" style="stop-color:#542F88"/>
			</radialGradient>
			<path fill="url(#SVGID_1_)" d="M-26.245-11.458c4.023-9.136,13.152-15.52,23.774-15.52c14.348,0,25.979,11.627,25.979,25.978
				c0,6.572-2.447,12.571-6.473,17.147"/>
			<g>
				<path fill="#EC7659" d="M42.87,28.105C39.869,32.93,16.884,24.039-8.48,8.261C-33.836-7.524-51.962-24.226-48.959-29.047
					c3.001-4.817,25.99,4.063,51.346,19.853C27.745,6.584,45.872,23.286,42.87,28.105z M0.65-6.408
					C-16.607-17.152-32.253-23.202-34.296-19.92C-36.339-16.637-24-5.269-6.743,5.473c17.259,10.737,32.907,16.79,34.948,13.51
					C30.25,15.698,17.914,4.333,0.65-6.408z"/>
			</g>
			<g>
				<path fill="#FCDF9C" d="M38.438,25.526C35.89,29.63,15.21,21.372-7.748,7.084C-30.703-7.203-47.242-22.107-44.689-26.207
					c2.554-4.104,23.229,4.153,46.185,18.438C24.452,6.519,40.994,21.425,38.438,25.526z M1.263-7.394
					c-21.831-13.585-41.461-21.5-43.842-17.68c-2.379,3.829,13.387,17.947,35.22,31.532c21.837,13.59,41.466,21.505,43.847,17.677
					C38.866,20.313,23.1,6.197,1.263-7.394z"/>
			</g>
			
				<radialGradient id="SVGID_2_" cx="3.5" cy="10.6738" r="55.0756" gradientTransform="matrix(1.0001 0 0 1.0001 -0.5625 0.7881)" gradientUnits="userSpaceOnUse">
				<stop  offset="0" style="stop-color:#FFFFFF"/>
				<stop  offset="0.0809" style="stop-color:#E0DAEA"/>
				<stop  offset="0.194" style="stop-color:#BBADD0"/>
				<stop  offset="0.3119" style="stop-color:#9C86BA"/>
				<stop  offset="0.4329" style="stop-color:#8266A8"/>
				<stop  offset="0.5583" style="stop-color:#6E4E9A"/>
				<stop  offset="0.6896" style="stop-color:#5F3D90"/>
				<stop  offset="0.8309" style="stop-color:#57328A"/>
				<stop  offset="1" style="stop-color:#542F88"/>
			</radialGradient>
			<path fill="url(#SVGID_2_)" d="M17.036,16.147c-4.759,5.411-11.731,8.83-19.506,8.83c-14.342,0-25.972-11.63-25.972-25.978
				c0-3.72,0.787-7.255,2.198-10.458"/>
		</g>
	</g>
	<polygon fill="#FDD622" points="42.118,16.965 44.832,13.166 49.283,14.576 46.511,10.819 49.226,7.021 44.796,8.499 42.023,4.743 
		42.059,9.411 37.629,10.887 42.081,12.296 	"/>
	<polygon fill="#FDD622" points="5.096,43.848 5.738,39.225 10.335,38.406 6.137,36.367 6.779,31.741 3.541,35.105 -0.656,33.064 
		1.539,37.183 -1.699,40.545 2.897,39.729 	"/>
	<polygon fill="#FDD622" points="-19.942,-32.114 -18.367,-36.51 -13.699,-36.369 -17.392,-39.225 -15.815,-43.619 -19.674,-40.99 
		-23.366,-43.848 -22.059,-39.366 -25.917,-36.736 -21.25,-36.597 	"/>
</symbol>
<defs>
	
	
		<inkscape:perspective  id="perspective8226" sodipodi:type="inkscape:persp3d" inkscape:vp_z="744.09448 : 526.18109 : 1" inkscape:vp_y="0 : 1000 : 0" inkscape:vp_x="0 : 526.18109 : 1" inkscape:persp3d-origin="372.04724 : 350.78739 : 1">
		</inkscape:perspective>
	
		<inkscape:perspective  id="perspective8210" sodipodi:type="inkscape:persp3d" inkscape:vp_z="1 : 0.5 : 1" inkscape:vp_y="0 : 1000 : 0" inkscape:vp_x="0 : 0.5 : 1" inkscape:persp3d-origin="0.5 : 0.33333333 : 1">
		</inkscape:perspective>
	
		<inkscape:perspective  id="perspective8251" sodipodi:type="inkscape:persp3d" inkscape:vp_z="1 : 0.5 : 1" inkscape:vp_y="0 : 1000 : 0" inkscape:vp_x="0 : 0.5 : 1" inkscape:persp3d-origin="0.5 : 0.33333333 : 1">
		</inkscape:perspective>
	
		<inkscape:perspective  id="perspective8282" sodipodi:type="inkscape:persp3d" inkscape:vp_z="1 : 0.5 : 1" inkscape:vp_y="0 : 1000 : 0" inkscape:vp_x="0 : 0.5 : 1" inkscape:persp3d-origin="0.5 : 0.33333333 : 1">
		</inkscape:perspective>
	
		<inkscape:perspective  id="perspective8313" sodipodi:type="inkscape:persp3d" inkscape:vp_z="1 : 0.5 : 1" inkscape:vp_y="0 : 1000 : 0" inkscape:vp_x="0 : 0.5 : 1" inkscape:persp3d-origin="0.5 : 0.33333333 : 1">
		</inkscape:perspective>
	
		<inkscape:perspective  id="perspective8350" sodipodi:type="inkscape:persp3d" inkscape:vp_z="1 : 0.5 : 1" inkscape:vp_y="0 : 1000 : 0" inkscape:vp_x="0 : 0.5 : 1" inkscape:persp3d-origin="0.5 : 0.33333333 : 1">
		</inkscape:perspective>
	
		<inkscape:perspective  id="perspective8381" sodipodi:type="inkscape:persp3d" inkscape:vp_z="1 : 0.5 : 1" inkscape:vp_y="0 : 1000 : 0" inkscape:vp_x="0 : 0.5 : 1" inkscape:persp3d-origin="0.5 : 0.33333333 : 1">
		</inkscape:perspective>
	
		<inkscape:perspective  id="perspective13950" sodipodi:type="inkscape:persp3d" inkscape:vp_z="1 : 0.5 : 1" inkscape:vp_y="0 : 1000 : 0" inkscape:vp_x="0 : 0.5 : 1" inkscape:persp3d-origin="0.5 : 0.33333333 : 1">
		</inkscape:perspective>
	
		<inkscape:perspective  id="perspective13981" sodipodi:type="inkscape:persp3d" inkscape:vp_z="1 : 0.5 : 1" inkscape:vp_y="0 : 1000 : 0" inkscape:vp_x="0 : 0.5 : 1" inkscape:persp3d-origin="0.5 : 0.33333333 : 1">
		</inkscape:perspective>
	
		<inkscape:perspective  id="perspective14012" sodipodi:type="inkscape:persp3d" inkscape:vp_z="1 : 0.5 : 1" inkscape:vp_y="0 : 1000 : 0" inkscape:vp_x="0 : 0.5 : 1" inkscape:persp3d-origin="0.5 : 0.33333333 : 1">
		</inkscape:perspective>
	
		<inkscape:perspective  id="perspective14436" sodipodi:type="inkscape:persp3d" inkscape:vp_z="1 : 0.5 : 1" inkscape:vp_y="0 : 1000 : 0" inkscape:vp_x="0 : 0.5 : 1" inkscape:persp3d-origin="0.5 : 0.33333333 : 1">
		</inkscape:perspective>
	
		<inkscape:perspective  id="perspective14464" sodipodi:type="inkscape:persp3d" inkscape:vp_z="1 : 0.5 : 1" inkscape:vp_y="0 : 1000 : 0" inkscape:vp_x="0 : 0.5 : 1" inkscape:persp3d-origin="0.5 : 0.33333333 : 1">
		</inkscape:perspective>
	
		<inkscape:perspective  id="perspective14498" sodipodi:type="inkscape:persp3d" inkscape:vp_z="1 : 0.5 : 1" inkscape:vp_y="0 : 1000 : 0" inkscape:vp_x="0 : 0.5 : 1" inkscape:persp3d-origin="0.5 : 0.33333333 : 1">
		</inkscape:perspective>
	
		<inkscape:perspective  id="perspective16768" sodipodi:type="inkscape:persp3d" inkscape:vp_z="1 : 0.5 : 1" inkscape:vp_y="0 : 1000 : 0" inkscape:vp_x="0 : 0.5 : 1" inkscape:persp3d-origin="0.5 : 0.33333333 : 1">
		</inkscape:perspective>
	
		<inkscape:perspective  id="perspective16799" sodipodi:type="inkscape:persp3d" inkscape:vp_z="1 : 0.5 : 1" inkscape:vp_y="0 : 1000 : 0" inkscape:vp_x="0 : 0.5 : 1" inkscape:persp3d-origin="0.5 : 0.33333333 : 1">
		</inkscape:perspective>
	
		<inkscape:perspective  id="perspective22223" sodipodi:type="inkscape:persp3d" inkscape:vp_z="1 : 0.5 : 1" inkscape:vp_y="0 : 1000 : 0" inkscape:vp_x="0 : 0.5 : 1" inkscape:persp3d-origin="0.5 : 0.33333333 : 1">
		</inkscape:perspective>
	
		<inkscape:perspective  id="perspective22251" sodipodi:type="inkscape:persp3d" inkscape:vp_z="1 : 0.5 : 1" inkscape:vp_y="0 : 1000 : 0" inkscape:vp_x="0 : 0.5 : 1" inkscape:persp3d-origin="0.5 : 0.33333333 : 1">
		</inkscape:perspective>
	
		<inkscape:perspective  id="perspective22279" sodipodi:type="inkscape:persp3d" inkscape:vp_z="1 : 0.5 : 1" inkscape:vp_y="0 : 1000 : 0" inkscape:vp_x="0 : 0.5 : 1" inkscape:persp3d-origin="0.5 : 0.33333333 : 1">
		</inkscape:perspective>
	
		<inkscape:perspective  id="perspective22307" sodipodi:type="inkscape:persp3d" inkscape:vp_z="1 : 0.5 : 1" inkscape:vp_y="0 : 1000 : 0" inkscape:vp_x="0 : 0.5 : 1" inkscape:persp3d-origin="0.5 : 0.33333333 : 1">
		</inkscape:perspective>
	
		<inkscape:perspective  id="perspective22335" sodipodi:type="inkscape:persp3d" inkscape:vp_z="1 : 0.5 : 1" inkscape:vp_y="0 : 1000 : 0" inkscape:vp_x="0 : 0.5 : 1" inkscape:persp3d-origin="0.5 : 0.33333333 : 1">
		</inkscape:perspective>
	
		<inkscape:perspective  id="perspective22363" sodipodi:type="inkscape:persp3d" inkscape:vp_z="1 : 0.5 : 1" inkscape:vp_y="0 : 1000 : 0" inkscape:vp_x="0 : 0.5 : 1" inkscape:persp3d-origin="0.5 : 0.33333333 : 1">
		</inkscape:perspective>
	
		<inkscape:perspective  id="perspective27783" sodipodi:type="inkscape:persp3d" inkscape:vp_z="1 : 0.5 : 1" inkscape:vp_y="0 : 1000 : 0" inkscape:vp_x="0 : 0.5 : 1" inkscape:persp3d-origin="0.5 : 0.33333333 : 1">
		</inkscape:perspective>
	
		<inkscape:perspective  id="perspective27811" sodipodi:type="inkscape:persp3d" inkscape:vp_z="1 : 0.5 : 1" inkscape:vp_y="0 : 1000 : 0" inkscape:vp_x="0 : 0.5 : 1" inkscape:persp3d-origin="0.5 : 0.33333333 : 1">
		</inkscape:perspective>
	
		<inkscape:perspective  id="perspective27839" sodipodi:type="inkscape:persp3d" inkscape:vp_z="1 : 0.5 : 1" inkscape:vp_y="0 : 1000 : 0" inkscape:vp_x="0 : 0.5 : 1" inkscape:persp3d-origin="0.5 : 0.33333333 : 1">
		</inkscape:perspective>
	
		<inkscape:perspective  id="perspective27867" sodipodi:type="inkscape:persp3d" inkscape:vp_z="1 : 0.5 : 1" inkscape:vp_y="0 : 1000 : 0" inkscape:vp_x="0 : 0.5 : 1" inkscape:persp3d-origin="0.5 : 0.33333333 : 1">
		</inkscape:perspective>
	
		<inkscape:perspective  id="perspective27907" sodipodi:type="inkscape:persp3d" inkscape:vp_z="1 : 0.5 : 1" inkscape:vp_y="0 : 1000 : 0" inkscape:vp_x="0 : 0.5 : 1" inkscape:persp3d-origin="0.5 : 0.33333333 : 1">
		</inkscape:perspective>
	
		<inkscape:perspective  id="perspective27935" sodipodi:type="inkscape:persp3d" inkscape:vp_z="1 : 0.5 : 1" inkscape:vp_y="0 : 1000 : 0" inkscape:vp_x="0 : 0.5 : 1" inkscape:persp3d-origin="0.5 : 0.33333333 : 1">
		</inkscape:perspective>
	
		<inkscape:perspective  id="perspective33349" sodipodi:type="inkscape:persp3d" inkscape:vp_z="1 : 0.5 : 1" inkscape:vp_y="0 : 1000 : 0" inkscape:vp_x="0 : 0.5 : 1" inkscape:persp3d-origin="0.5 : 0.33333333 : 1">
		</inkscape:perspective>
	
		<inkscape:perspective  id="perspective33377" sodipodi:type="inkscape:persp3d" inkscape:vp_z="1 : 0.5 : 1" inkscape:vp_y="0 : 1000 : 0" inkscape:vp_x="0 : 0.5 : 1" inkscape:persp3d-origin="0.5 : 0.33333333 : 1">
		</inkscape:perspective>
	
		<inkscape:perspective  id="perspective33405" sodipodi:type="inkscape:persp3d" inkscape:vp_z="1 : 0.5 : 1" inkscape:vp_y="0 : 1000 : 0" inkscape:vp_x="0 : 0.5 : 1" inkscape:persp3d-origin="0.5 : 0.33333333 : 1">
		</inkscape:perspective>
	
		<inkscape:perspective  id="perspective33433" sodipodi:type="inkscape:persp3d" inkscape:vp_z="1 : 0.5 : 1" inkscape:vp_y="0 : 1000 : 0" inkscape:vp_x="0 : 0.5 : 1" inkscape:persp3d-origin="0.5 : 0.33333333 : 1">
		</inkscape:perspective>
	
		<inkscape:perspective  id="perspective33461" sodipodi:type="inkscape:persp3d" inkscape:vp_z="1 : 0.5 : 1" inkscape:vp_y="0 : 1000 : 0" inkscape:vp_x="0 : 0.5 : 1" inkscape:persp3d-origin="0.5 : 0.33333333 : 1">
		</inkscape:perspective>
	
		<inkscape:perspective  id="perspective33495" sodipodi:type="inkscape:persp3d" inkscape:vp_z="1 : 0.5 : 1" inkscape:vp_y="0 : 1000 : 0" inkscape:vp_x="0 : 0.5 : 1" inkscape:persp3d-origin="0.5 : 0.33333333 : 1">
		</inkscape:perspective>
</defs>
<path id="path31143" inkscape:connector-curvature="0" fill="#0374A3" d="M32.351,7.929l0.096,0.096h0.478l0.191,0.096h0.096
	l0.19,0.096l0.191,0.096l0.191,0.096l0.191,0.096l0.096,0.191l0.096,0.096l0.191,0.096l0.096,0.191l0.286,0.287l11.69,20.272
	l11.569,20.176l0.097,0.19l0.096,0.19l0.096,0.191l0.096,0.19v0.479l0.096,0.19l-0.096,0.287v0.382l-0.096,0.191l-0.096,0.189v0.191
	l-0.191,0.191l-0.096,0.19l-0.096,0.096l-0.097,0.097l-0.096,0.097l-0.097,0.19l-0.096,0.096l-0.191,0.097l-0.19,0.097l-0.19,0.096
	l-0.096,0.097l-0.191,0.097h-0.19l-0.19,0.096h-0.383l-0.191,0.096H32.255l-23.26-0.096h-0.67L8.134,53.93H7.943l-0.191-0.096
	l-0.095-0.096l-0.191-0.096l-0.191-0.098L7.083,53.45l-0.191-0.191l-0.096-0.097L6.7,52.973l-0.096-0.098l-0.095-0.189l-0.191-0.191
	v-0.189l-0.096-0.098v-0.189L6.126,51.92v-0.382L6.03,51.25l0.096-0.191V50.58l0.096-0.191l0.096-0.191v-0.19l0.191-0.19
	l11.57-20.175l11.69-20.177l0.096-0.191l0.191-0.191l0.096-0.191l0.096-0.096l0.287-0.287l0.191-0.096l0.096-0.096l0.287-0.096
	L31.3,8.124h0.191l0.191-0.096h0.479L32.351,7.929L32.351,7.929z"/>
<sodipodi:namedview  bordercolor="#666666" borderopacity="1.0" inkscape:cx="-62.981503" inkscape:cy="64.510165" inkscape:zoom="0.98994949" pagecolor="#ffffff" showgrid="false" showguides="true" id="base" inkscape:current-layer="layer1" inkscape:document-units="px" inkscape:guide-bbox="true" inkscape:pageopacity="0.0" inkscape:pageshadow="2" inkscape:window-height="774" inkscape:window-maximized="1" inkscape:window-width="1280" inkscape:window-x="-4" inkscape:window-y="-4">
	</sodipodi:namedview>
<g id="layer1" transform="translate(0,-988.36218)" inkscape:label="Layer 1" inkscape:groupmode="layer">
	<path id="path31145" inkscape:connector-curvature="0" fill="#1F1A17" d="M32.542,997.726l0.097,0.096l0.189,0.096l0.191,0.096
		h0.096l0.096,0.191l0.287,0.287l23.261,40.353l0.095,0.096l0.097,0.098v0.189l0.096,0.098v0.382l-0.096,0.287l-0.097,0.19
		l-0.095,0.191l-0.19,0.191l-0.191,0.191l-0.382,0.19l-0.287,0.097h-47l-0.096-0.097H8.421l-0.096-0.097H8.23l-0.096-0.096
		l-0.191-0.098l-0.191-0.191l-0.095-0.285l-0.096-0.19l-0.096-0.287v-0.19l0.096-0.287l0.096-0.191v-0.191h0.095l23.261-40.353
		v-0.096l0.095-0.096l0.096-0.096l0.096-0.096l0.191-0.191h0.096l0.095-0.096h0.287l0.096-0.096L32.542,997.726L32.542,997.726z
		 M52.168,1037.6H12.342l19.913-34.521L52.168,1037.6L52.168,1037.6z"/>
</g>
<path id="path31147" inkscape:connector-curvature="0" display="none" fill="#A31924" d="M34.934,37.859l2.867-1.721l2.01,1.146
	l1.242-0.668v-1.244l-0.861-0.574l0.861-0.478v-1.53l-1.339-0.765l-0.86,0.478l-0.096-0.956l-1.053-0.669l-1.146,0.669v2.295
	l-2.965,1.721v-3.347l1.912-1.243v-1.339l-1.051-0.574l-0.861,0.383v-0.957l-1.339-0.765l-1.338,0.765v0.957l-0.861-0.383
	l-1.052,0.574v1.339l1.913,1.243v3.347l-2.869-1.721l-0.096-2.295l-1.147-0.669l-1.052,0.669l-0.096,0.956l-0.861-0.478
	l-1.339,0.765v1.53l0.861,0.478l-0.861,0.574v1.244l1.243,0.668l2.008-1.146l2.869,1.721l-2.869,1.721L24.7,38.434l-1.243,0.766
	v1.146l0.861,0.574l-0.861,0.479v1.529l1.339,0.766l0.861-0.479l0.096,1.051l1.052,0.574l1.147-0.67v-2.295l2.964-1.721v3.443
	l-1.913,1.146v1.339l1.052,0.669l0.861-0.478v0.955l1.338,0.767l1.339-0.767v-0.955l0.861,0.478l1.051-0.669v-1.339l-1.912-1.146
	v-3.443l2.869,1.721l0.097,2.295l1.146,0.67l1.053-0.574l0.097-1.051l0.859,0.479l1.339-0.766v-1.529l-0.86-0.479l0.86-0.574v-1.146
	l-1.243-0.766L37.8,39.58L34.934,37.859"/>
<rect x="20.123" y="39.651" fill="none" width="23.754" height="9.349"/>
<text transform="matrix(1 0 0 1 20.1226 48.1719)" fill="#6C908A" font-family="'MyriadPro-Regular'" font-size="12">Core</text>
<use xlink:href="#Planet"  width="98.568" height="87.696" x="-49.285" y="-43.848" transform="matrix(0.1739 0 0 -0.1739 32 29.9766)" overflow="visible"/>
</svg>
