<?xml version="1.0" encoding="UTF-8" standalone="no"?>
<!-- Created with Inkscape (http://www.inkscape.org/) -->

<svg
   xmlns:dc="http://purl.org/dc/elements/1.1/"
   xmlns:cc="http://creativecommons.org/ns#"
   xmlns:rdf="http://www.w3.org/1999/02/22-rdf-syntax-ns#"
   xmlns:svg="http://www.w3.org/2000/svg"
   xmlns="http://www.w3.org/2000/svg"
   xmlns:xlink="http://www.w3.org/1999/xlink"
   xmlns:sodipodi="http://sodipodi.sourceforge.net/DTD/sodipodi-0.dtd"
   xmlns:inkscape="http://www.inkscape.org/namespaces/inkscape"
   version="1.0"
   width="800"
   height="500"
   id="svg2"
   inkscape:version="0.48+devel r10736"
   sodipodi:docname="Microsoft_NET_Logo2x.svg">
  <metadata
     id="metadata34">
    <rdf:RDF>
      <cc:Work
         rdf:about="">
        <dc:format>image/svg+xml</dc:format>
        <dc:type
           rdf:resource="http://purl.org/dc/dcmitype/StillImage" />
        <dc:title></dc:title>
      </cc:Work>
    </rdf:RDF>
  </metadata>
  <sodipodi:namedview
     pagecolor="#ffffff"
     bordercolor="#666666"
     borderopacity="1"
     objecttolerance="10"
     gridtolerance="10"
     guidetolerance="10"
     inkscape:pageopacity="0"
     inkscape:pageshadow="2"
     inkscape:window-width="1680"
     inkscape:window-height="1024"
     id="namedview32"
     showgrid="false"
     inkscape:zoom="1"
     inkscape:cx="400"
     inkscape:cy="250.00001"
     inkscape:window-x="-4"
     inkscape:window-y="-4"
     inkscape:window-maximized="1"
     inkscape:current-layer="svg2" />
  <defs
     id="defs4">
    <linearGradient
       id="linearGradient3481">
      <stop
         id="stop3483"
         style="stop-color:#f5844e;stop-opacity:1"
         offset="0" />
      <stop
         id="stop3485"
         style="stop-color:#f5834d;stop-opacity:0"
         offset="1" />
    </linearGradient>
    <linearGradient
       id="linearGradient3473">
      <stop
         id="stop3475"
         style="stop-color:#ffce30;stop-opacity:1"
         offset="0" />
      <stop
         id="stop3477"
         style="stop-color:#ffce31;stop-opacity:0"
         offset="1" />
    </linearGradient>
    <linearGradient
       id="linearGradient3464">
      <stop
         id="stop3466"
         style="stop-color:#ffffff;stop-opacity:0"
         offset="0" />
      <stop
         id="stop3468"
         style="stop-color:#81c56d;stop-opacity:1"
         offset="1" />
    </linearGradient>
    <linearGradient
       id="linearGradient3443">
      <stop
         id="stop3445"
         style="stop-color:#559bd4;stop-opacity:1"
         offset="0" />
      <stop
         id="stop3447"
         style="stop-color:#ffffff;stop-opacity:0"
         offset="1" />
    </linearGradient>
    <linearGradient
       x1="454.30823"
       y1="-1835.8932"
       x2="452.30823"
       y2="-1712.2634"
       id="linearGradient3449"
       xlink:href="#linearGradient3443"
       gradientUnits="userSpaceOnUse"
       gradientTransform="matrix(1.456421,0,0,1.456421,-410.45297,2926.8785)" />
    <linearGradient
       x1="541.6438"
       y1="-1815.1028"
       x2="541.6438"
       y2="-1720.2479"
       id="linearGradient3470"
       xlink:href="#linearGradient3464"
       gradientUnits="userSpaceOnUse"
       gradientTransform="matrix(1.456421,0,0,1.456421,-410.45297,2926.8785)" />
    <linearGradient
       x1="565.68542"
       y1="-1760.686"
       x2="661.85193"
       y2="-1760.6859"
       id="linearGradient3479"
       xlink:href="#linearGradient3473"
       gradientUnits="userSpaceOnUse"
       gradientTransform="matrix(1.456421,0,0,1.456421,-410.45297,2926.8785)" />
    <linearGradient
       x1="699.32861"
       y1="-1864.1003"
       x2="699.32861"
       y2="-1794.4503"
       id="linearGradient3487"
       xlink:href="#linearGradient3481"
       gradientUnits="userSpaceOnUse"
       gradientTransform="matrix(1.456421,0,0,1.456421,-410.45297,2926.8785)" />
  </defs>
  <g
     id="layer1"
     transform="matrix(1.093407,0,0,1.2286689,-51.732656,-54.113106)">
    <path
       d="m 326.40124,284.05275 79.81301,0 0,63.85037 23.68643,42.73853 1.02985,29.86552 -105.04421,0 0.51492,-136.45442 z"
       id="path3417"
       style="fill:url(#linearGradient3470);fill-opacity:1;fill-rule:evenodd;stroke:none"
       inkscape:connector-curvature="0" />
    <path
       d="m 145.75205,153.91513 -12.41599,0 0,-84.14531 -28.2059,84.14531 -11.741229,0 -28.205908,-84.14531 0,84.14531 -12.415989,0 0,-98.923032 19.636167,0 26.788869,82.458342 26.92382,-82.458342 19.63616,0 0,98.923032 z m 33.33426,0 -12.75338,0 0,-71.594311 12.75338,0 0,71.594311 z m 0,-85.157523 -12.75338,0 0,-13.765509 12.75338,0 0,13.765509 z m 47.84208,86.844493 c -10.16676,0 -18.29787,-3.27258 -24.39338,-9.81802 -6.09555,-6.54545 -9.14331,-15.75615 -9.14331,-27.63239 0,-11.9211 3.04776,-21.143157 9.14331,-27.666029 6.09551,-6.522873 14.22662,-9.784237 24.39338,-9.784382 7.82743,1.45e-4 14.36157,1.979422 19.60243,5.938119 5.24076,3.958698 8.3335,9.671947 9.27826,17.139452 l -13.09078,0 c -0.17999,-4.273574 -1.78822,-7.535083 -4.8247,-9.78438 -3.03656,-2.249151 -6.69162,-3.373799 -10.96521,-3.373945 -6.07308,1.46e-4 -10.99898,2.30566 -14.77774,6.916544 -3.7788,4.611171 -5.66819,11.482571 -5.66817,20.614621 -2e-5,9.0872 1.88937,15.93616 5.66817,20.54719 3.77876,4.61103 8.70466,6.91654 14.77774,6.91654 4.27359,0 7.92865,-1.12465 10.96521,-3.37394 3.03648,-2.2493 4.64471,-5.48823 4.8247,-9.71695 l 13.09078,0 c -0.94476,7.46765 -4.0375,13.18075 -9.27826,17.1396 -5.24086,3.9587 -11.775,5.93797 -19.60243,5.93797 l 0,0 z m 77.2626,-61.675062 c -1.79946,-0.53975 -4.38612,-0.809625 -7.76,-0.80977 -6.47794,1.45e-4 -12.03365,3.396519 -16.66712,10.189272 l 0,50.60859 -12.7534,0 0,-71.594311 12.7534,0 0,9.986679 c 5.35325,-7.737383 11.56125,-11.606074 18.624,-11.606219 1.79938,1.45e-4 3.73375,0.180013 5.80312,0.539895 l 0,12.685864 z m 35.6731,-13.225759 c 10.21167,1.45e-4 18.36528,3.261509 24.46087,9.784382 6.09547,6.522872 9.14323,15.744929 9.14331,27.666029 -8e-5,11.87624 -3.04784,21.08694 -9.14331,27.63239 -6.09559,6.54544 -14.2492,9.81802 -24.46087,9.81802 -10.16675,0 -18.29786,-3.27258 -24.39338,-9.81802 -6.09554,-6.54545 -9.14331,-15.75615 -9.14331,-27.63239 0,-11.9211 3.04777,-21.143157 9.14331,-27.666029 6.09552,-6.522873 14.22663,-9.784237 24.39338,-9.784382 l 0,0 z m 0,64.914141 c 6.073,0 10.99892,-2.30551 14.77775,-6.91654 3.77871,-4.61103 5.66811,-11.45999 5.66817,-20.54719 -6e-5,-9.13205 -1.88946,-16.00345 -5.66817,-20.614621 -3.77883,-4.610884 -8.70475,-6.916398 -14.77775,-6.916544 -6.07307,1.46e-4 -10.99898,2.30566 -14.77774,6.916544 -3.7788,4.611171 -5.66818,11.482571 -5.66817,20.614621 -1e-5,9.0872 1.88937,15.93616 5.66817,20.54719 3.77876,4.61103 8.70467,6.91654 14.77774,6.91654 l 0,0 z m 70.39429,9.98668 c -19.56871,0 -29.80291,-7.69252 -30.70261,-23.07757 l 12.7534,0 c 0.0899,8.72731 6.02804,13.09089 17.81426,13.09089 5.26325,0 9.27821,-1.091 12.04486,-3.27272 2.76656,-2.18186 4.14987,-4.91469 4.14991,-8.19863 -4e-5,-3.23894 -1.34961,-5.52188 -4.04869,-6.84911 -2.69917,-1.32695 -8.26612,-3.04771 -16.70087,-5.162 -8.4348,-2.11428 -14.59781,-4.47602 -18.48904,-7.0852 -3.89125,-2.60917 -5.83687,-7.19763 -5.83687,-13.76565 0,-5.937975 2.41796,-10.852667 7.25392,-14.743933 4.83592,-3.891265 11.30257,-5.836753 19.4,-5.836898 18.7589,1.45e-4 28.3408,6.680457 28.74573,20.041081 l -12.68591,0 c -0.4499,-6.747744 -5.51076,-10.121689 -15.18261,-10.121835 -4.27365,1.46e-4 -7.81626,0.809916 -10.62782,2.42931 -2.81162,1.619541 -4.21742,3.981273 -4.21739,7.085195 -3e-5,2.78919 1.07963,4.80226 3.23895,6.03934 2.15928,1.23709 7.56879,2.90163 16.22852,4.99334 8.65966,2.09186 15.09259,4.53239 19.29879,7.32143 4.20607,2.78905 6.30914,7.60252 6.30921,14.44027 -7e-5,6.52302 -2.59798,11.93246 -7.79374,16.22861 -5.19587,4.29601 -12.17986,6.44408 -20.952,6.44408 l 0,0 z m 70.47943,-74.900821 c 10.21167,1.45e-4 18.36528,3.261509 24.46087,9.784382 6.09547,6.522872 9.14323,15.744929 9.14331,27.666029 -8e-5,11.87624 -3.04784,21.08694 -9.14331,27.63239 -6.09559,6.54544 -14.2492,9.81802 -24.46087,9.81802 -10.16675,0 -18.29786,-3.27258 -24.39338,-9.81802 -6.09554,-6.54545 -9.14331,-15.75615 -9.14331,-27.63239 0,-11.9211 3.04777,-21.143157 9.14331,-27.666029 6.09552,-6.522873 14.22663,-9.784237 24.39338,-9.784382 l 0,0 z m 0,64.914141 c 6.073,0 10.9989,-2.30551 14.77775,-6.91654 3.77871,-4.61103 5.66811,-11.45999 5.66817,-20.54719 -6e-5,-9.13205 -1.88946,-16.00345 -5.66817,-20.614621 -3.77885,-4.610884 -8.70475,-6.916398 -14.77775,-6.916544 -6.07307,1.46e-4 -10.99898,2.30566 -14.77774,6.916544 -3.7788,4.611171 -5.66818,11.482571 -5.66817,20.614621 -10e-6,9.0872 1.88937,15.93616 5.66817,20.54719 3.77876,4.61103 8.70467,6.91654 14.77774,6.91654 l 0,0 z m 64.36705,-53.307922 0,61.607632 -12.68591,0 0,-61.607632 -10.5266,0 0,-9.986679 10.5266,0 0,-6.343005 c -10e-6,-15.115028 6.68033,-22.672542 20.04104,-22.672688 4.09365,1.46e-4 7.26512,0.27002 9.51443,0.80977 l 0,11.066324 c -2.51923,-0.449743 -5.08339,-0.674614 -7.69252,-0.67476 -3.10403,1.46e-4 -5.40953,0.866133 -6.91652,2.597964 -1.50704,1.731975 -2.26054,4.734824 -2.26052,9.0084 l 0,6.207995 13.56314,0 0,9.986679 -13.56314,0 z m 63.05918,62.552412 c -2.78913,0.53989 -11.74724,0 -15.03116,0 -5.21835,0 -9.04211,-0.93342 -11.4713,-2.80041 -2.42924,-1.86684 -3.93624,-4.26236 -4.52105,-7.18641 -0.58481,-2.92406 -0.87722,-6.90519 -0.87722,-11.94368 l 0,-40.621912 -10.38441,0 0,-9.986679 10.38441,0 0,-17.814359 12.68592,0 0,17.814359 15.9831,0 0,9.986679 -15.9831,0 0,41.296672 c -3e-5,4.90348 0.61853,8.01877 1.85566,9.34586 1.23707,1.32709 2.93527,1.99063 5.0946,1.99049 2.20425,1.4e-4 10.24017,0.35988 12.26455,0 l 0,9.91939 z"
       id="text3397"
       style="font-size:94.88703156px;font-style:normal;font-variant:normal;font-weight:normal;font-stretch:normal;text-align:start;line-height:100%;writing-mode:lr-tb;text-anchor:start;fill:#000000;fill-opacity:1;stroke:none;font-family:Microsoft Sans Serif;-inkscape-font-specification:Microsoft Sans Serif"
       inkscape:connector-curvature="0" />
    <path
       d="m 170.37969,432.35049 145.20818,0 -2.05969,-189.49158 -43.76842,-29.86552 -42.73857,3.6045 -47.37289,33.98485 -9.26861,181.76775 z"
       id="path3415"
       style="fill:url(#linearGradient3449);fill-opacity:1;fill-rule:evenodd;stroke:none"
       inkscape:connector-curvature="0" />
    <path
       d="m 364.51353,-1736.4675 a 24.395185,24.395185 0 1 1 -48.79037,0 24.395185,24.395185 0 1 1 48.79037,0 z"
       transform="matrix(1.456421,0,0,1.456421,-410.45297,2926.8785)"
       id="path3413"
       style="fill:#000000;fill-opacity:1;fill-rule:nonzero;stroke:none"
       inkscape:connector-curvature="0" />
    <path
       d="m 413.42315,307.73911 0.51493,40.16401 32.95504,57.67136 33.46997,14.93269 59.21609,-2.05967 43.76842,-41.7087 0,-72.0892 -169.92445,3.08951 z"
       id="path3419"
       style="fill:url(#linearGradient3479);fill-opacity:1;fill-rule:evenodd;stroke:none"
       inkscape:connector-curvature="0" />
    <path
       d="m 546.7881,217.11273 33.98489,73.63403 1.54477,33.98485 80.84285,0 6.17907,-112.76805 -122.55158,5.14917 z"
       id="path3421"
       style="fill:url(#linearGradient3487);fill-opacity:1;fill-rule:evenodd;stroke:none"
       inkscape:connector-curvature="0" />
    <path
       d="m 654.14526,141.42778 0,51.24766 -144.04914,0 c -5.14767,-0.695 -10.46712,-1.04673 -15.97511,-1.04673 -31.84559,3e-4 -57.76076,11.13318 -77.73647,33.36122 -19.97585,22.22819 -29.9932,53.46085 -29.99317,93.71152 -2e-5,38.89911 9.91582,69.11008 29.67457,90.6622 0.2687,0.29303 0.54795,0.57558 0.81924,0.86468 l -77.59993,0 0,-121.065 c -2.2e-4,-18.77341 -0.73734,-31.9045 -2.18463,-39.41424 -2.31625,-11.56442 -6.36213,-21.53697 -12.15201,-29.94781 -5.7903,-8.41024 -14.5177,-15.20794 -26.17007,-20.38989 -11.65272,-5.18122 -24.42603,-7.78238 -38.32208,-7.78268 -31.99036,3e-4 -56.43129,13.13139 -73.3672,39.4144 l 0,-33.9984 -35.18167,0 0,239.26273 39.0958,0 0,-130.6682 c -8e-5,-30.63858 6.02732,-51.43452 18.11423,-62.39861 12.08672,-10.9635 26.45433,-16.47547 43.10096,-16.47576 10.42203,2.9e-4 19.51798,2.44664 27.26238,7.32769 7.74407,4.88134 13.1172,11.43116 16.15717,19.6161 3.03963,8.18552 4.55113,20.52694 4.55132,37.04771 l 0,145.55107 158.29476,0 c 11.43852,3.59008 24.01051,5.41614 37.77592,5.41599 26.77902,1.5e-4 48.81388,-6.78182 66.03958,-20.29872 17.22531,-13.51719 28.99443,-32.50149 35.36373,-56.98247 l -40.37017,-5.18864 c -5.93503,17.12168 -13.98952,29.60204 -24.12198,37.41195 -10.13281,7.80977 -22.35329,11.69681 -36.6836,11.69681 -19.25217,0 -35.3156,-6.96839 -48.19843,-20.93605 -12.88302,-13.96751 -20.03478,-34.11273 -21.48221,-60.39603 l 171.9487,0 c 0.14452,-4.80575 0.22732,-8.42889 0.22757,-10.83199 -2.3e-4,-39.49988 -9.76915,-70.11341 -29.31047,-91.89113 -0.0289,-0.0322 -0.0621,-0.0588 -0.091,-0.091 l 84.56344,0 0,142.00105 c -3e-5,24.33082 1.59433,40.29524 4.77888,47.87984 3.18451,7.58446 8.65908,13.73143 16.47577,18.38732 7.81655,4.65588 18.81122,6.96358 32.99704,6.96358 l 43.14647,0 0,-37.86694 -36.41053,0 c -5.79019,0 -10.22326,-0.96037 -13.33535,-2.91285 -3.11226,-1.95247 -5.36088,-4.56966 -6.73595,-7.87384 -1.37522,-3.30404 -2.04813,-10.73674 -2.04809,-22.30145 l 0,-144.27671 50.92922,0 0,-31.54069 -50.92922,0 0,-51.24766 -38.86824,0 z m -159.61463,83.56215 c 19.83091,1.5e-4 35.97712,7.81967 48.42599,23.4392 8.10595,10.06285 13.00902,25.11482 14.74627,45.24008 l -128.75672,0 c 1.30272,-20.87634 8.06724,-37.5075 20.29886,-49.97345 12.23148,-12.46565 27.33624,-18.70568 45.2856,-18.70583 z"
       id="text3451"
       style="font-size:311.00479126px;font-style:normal;font-variant:normal;font-weight:normal;font-stretch:normal;text-align:start;line-height:100%;writing-mode:lr-tb;text-anchor:start;fill:#000000;fill-opacity:1;stroke:none;font-family:Arial;-inkscape-font-specification:Arial"
       inkscape:connector-curvature="0" />
    <text
       x="544"
       y="-2108"
       id="text3489"
       xml:space="preserve"
       style="font-size:87.54772186px;font-style:normal;font-variant:normal;font-weight:normal;font-stretch:normal;text-align:start;line-height:100%;writing-mode:lr-tb;text-anchor:start;fill:#000000;fill-opacity:1;stroke:none;font-family:Arial;-inkscape-font-specification:Arial"
       sodipodi:linespacing="100%"><tspan
         x="544"
         y="-2108"
         id="tspan3491" /></text>
    <path
       d="m 617.43106,78.501646 c 1.37614,0 2.71971,0.353182 4.03069,1.059255 1.31095,0.706219 2.33221,1.716684 3.06376,3.031249 0.73151,1.314566 1.09728,2.685204 1.09729,4.112059 -10e-6,1.412437 -0.36035,2.770404 -1.081,4.074192 -0.72069,1.303788 -1.73107,2.315855 -3.03116,3.036638 -1.30012,0.720637 -2.65998,1.080956 -4.07958,1.080956 -1.41962,0 -2.77948,-0.360319 -4.07957,-1.080956 -1.3001,-0.720783 -2.3123,-1.73285 -3.03659,-3.036638 -0.72429,-1.303788 -1.08645,-2.661755 -1.08645,-4.074192 0,-1.426855 0.36759,-2.797493 1.10275,-4.112059 0.73515,-1.314565 1.7582,-2.32503 3.06919,-3.031249 1.31095,-0.706073 2.65451,-1.059255 4.03067,-1.059255 l 0,0 z m 0,1.358113 c -1.15162,0 -2.27247,0.295071 -3.36253,0.885358 -1.09005,0.590287 -1.94291,1.434138 -2.55855,2.531405 -0.61566,1.097414 -0.92347,2.239976 -0.92347,3.427687 0,1.180721 0.30238,2.31236 0.90717,3.395209 0.60478,1.082849 1.45039,1.926553 2.53684,2.531405 1.08643,0.604706 2.21994,0.907205 3.40054,0.907205 1.18059,0 2.31411,-0.302499 3.40055,-0.907205 1.08644,-0.604852 1.93023,-1.448556 2.53141,-2.531405 0.60114,-1.082849 0.90173,-2.214488 0.90174,-3.395209 -10e-6,-1.187711 -0.30604,-2.330273 -0.91804,-3.427687 -0.61204,-1.097267 -1.4649,-1.941118 -2.55857,-2.531405 -1.09368,-0.590287 -2.21271,-0.885358 -3.35709,-0.885358 l 0,0 z m -3.59611,11.374939 0,-8.821833 3.03116,0 c 1.03574,0 1.78537,0.08141 2.24894,0.244387 0.46353,0.162974 0.83292,0.447267 1.10816,0.85288 0.27522,0.405614 0.41284,0.836569 0.41285,1.292865 -1e-5,0.644612 -0.22998,1.205917 -0.68989,1.683914 -0.45994,0.478143 -1.07015,0.746125 -1.83065,0.80409 0.31144,0.13035 0.56132,0.286041 0.74965,0.467074 0.35489,0.347648 0.78947,0.930799 1.30371,1.749162 l 1.07559,1.727461 -1.73832,0 -0.78222,-1.390591 c -0.61566,-1.093772 -1.11181,-1.778144 -1.48842,-2.053408 -0.26076,-0.202734 -0.641,-0.304246 -1.14076,-0.304246 l -0.83657,0 0,3.748245 -1.42323,0 z m 1.42323,-4.964939 1.72745,0 c 0.82567,0 1.38881,-0.123213 1.6894,-0.369494 0.30058,-0.246281 0.45087,-0.572082 0.45088,-0.977696 -10e-6,-0.260845 -0.0724,-0.494455 -0.2173,-0.700829 -0.14485,-0.206375 -0.34585,-0.360319 -0.60297,-0.461686 -0.25713,-0.101367 -0.73335,-0.152196 -1.42866,-0.152196 l -1.6188,0 0,2.661901 z"
       id="text3496"
       style="font-size:15.2773447px;font-style:normal;font-variant:normal;font-weight:normal;font-stretch:normal;text-align:start;line-height:100%;writing-mode:lr-tb;text-anchor:start;fill:#000000;fill-opacity:1;stroke:none;font-family:Arial;-inkscape-font-specification:Arial"
       inkscape:connector-curvature="0" />
    <path
       d="m 755.20994,206.26924 0,-12.3506 -4.61352,0 0,-1.65245 11.09921,0 0,1.65245 -4.63262,0 0,12.3506 -1.85307,0 z m 8.33874,0 0,-14.00305 2.78913,0 3.31448,9.91488 c 0.30565,0.92322 0.52852,1.61415 0.66863,2.07263 0.15919,-0.50931 0.40754,-1.25762 0.74505,-2.24464 l 3.35268,-9.74287 2.49303,0 0,14.00305 -1.7862,0 0,-11.72011 -4.06906,11.72011 -1.67158,0 -4.04996,-11.92066 0,11.92066 -1.7862,0 z"
       id="text3501"
       style="font-size:13.43163967px;font-style:normal;font-variant:normal;font-weight:normal;font-stretch:normal;text-align:start;line-height:100%;writing-mode:lr-tb;text-anchor:start;fill:#000000;fill-opacity:1;stroke:none;font-family:Arial;-inkscape-font-specification:Arial"
       inkscape:connector-curvature="0" />
  </g>
</svg>
