<?xml version="1.0" encoding="UTF-8" standalone="no"?>
<!-- Created with Inkscape (http://www.inkscape.org/) -->

<svg
   xmlns:dc="http://purl.org/dc/elements/1.1/"
   xmlns:cc="http://creativecommons.org/ns#"
   xmlns:rdf="http://www.w3.org/1999/02/22-rdf-syntax-ns#"
   xmlns:svg="http://www.w3.org/2000/svg"
   xmlns="http://www.w3.org/2000/svg"
   xmlns:sodipodi="http://sodipodi.sourceforge.net/DTD/sodipodi-0.dtd"
   xmlns:inkscape="http://www.inkscape.org/namespaces/inkscape"
   width="300"
   height="150"
   id="svg2"
   version="1.1"
   inkscape:version="0.48.0 r9654"
   sodipodi:docname="FSM.svg">
  <defs
     id="defs4" />
  <sodipodi:namedview
     id="base"
     pagecolor="#ffffff"
     bordercolor="#666666"
     borderopacity="1.0"
     inkscape:pageopacity="0.0"
     inkscape:pageshadow="2"
     inkscape:zoom="1.4142136"
     inkscape:cx="462.9333"
     inkscape:cy="132.49931"
     inkscape:document-units="px"
     inkscape:current-layer="layer1"
     showgrid="false"
     inkscape:window-width="1875"
     inkscape:window-height="1031"
     inkscape:window-x="45"
     inkscape:window-y="25"
     inkscape:window-maximized="1" />
  <metadata
     id="metadata7">
    <rdf:RDF>
      <cc:Work
         rdf:about="">
        <dc:format>image/svg+xml</dc:format>
        <dc:type
           rdf:resource="http://purl.org/dc/dcmitype/StillImage" />
        <dc:title />
      </cc:Work>
    </rdf:RDF>
  </metadata>
  <g
     inkscape:label="Layer 1"
     inkscape:groupmode="layer"
     id="layer1"
     transform="translate(0,-902.36218)">
    <g
       id="g3061"
       transform="matrix(1.0000004,0,0,0.99999889,-419.23323,588.60995)">
      <path
         id="path3049"
         d="m 592.09375,317.8125 c -15.80023,-0.42261 -25.47049,18.6172 -12.90625,30.5625 1.395,1.32628 2.88906,1.39102 3.3125,2.625 0.1117,4.40571 -0.0457,9.22902 0.0312,12.84375 l -12.5312,-0.875 -12.5625,0.875 c 10e-4,-4.92361 -0.0235,-8.18512 0,-12.78125 1.81304,-0.74311 3.71304,-1.39097 5.36092,-3.91728 5.95,-9.12175 7.74004,-30.80187 -20.04842,-28.70772 -14.70277,3.62407 -17.86651,24.16232 -4.03125,32.9375 1.62204,1.0288 5.8125,3.27232 5.8125,3.27232 0,0 0.031,8.28687 -0.1875,10.13393 -11.894,1.22912 -29.39435,11.23714 -39.0625,17.75 L 497.625,387.875 491,383.4375 c -17.91303,-12.012 -33.5625,-8.4748 -33.5625,7.59375 0,4.13062 -0.0127,4.14218 -2.25,2.5 -7.81209,-5.73412 -18.19451,-7.34917 -22.96875,-3.59375 -6.40297,5.03657 -2.53684,12.35481 6,11.34375 4.60691,-0.54562 5.21969,-0.33543 8.84375,2.90625 12.5388,11.21578 25.05695,6.8196 24.21875,-8.5 l 0.0312,-5.53125 3.125,-0.34375 c 4.37432,0.43778 6.29036,1.42302 12.25,6.375 5.59168,4.64624 5.64582,4.76977 1.78125,6.96875 -4.3067,2.45056 -8.61724,9.85198 -10.125,17.4375 -1.52767,7.68568 -1.98853,8.01041 -8.96875,5.9375 -9.79812,-2.90972 -16.4246,-1.68748 -22.6875,4.1875 -7.60541,7.13434 1.39507,16.18976 10,10.0625 2.85379,-2.03207 3.42421,-2.10672 8.65625,-0.9375 17.65627,3.94571 23.27687,1.09919 26.09375,-13.21875 2.11887,-10.76998 3.79437,-12.6875 11.125,-12.6875 9.42196,0 12.04181,2.71313 8.125,8.375 -2.50615,3.62271 -2.75,4.78899 -2.75,13.0625 l 0,9.0625 -7.5,0.53125 c -4.125,0.27966 -8.48775,1.08254 -9.71875,1.78125 -3.9604,2.39774 -4.97469,11.87006 1.96875,12.5625 0,0 2.05,0.35205 4.25,0.125 2.2,-0.22704 6.5587,-0.67007 9.6875,-1 11.79009,-0.98941 17.52671,-5.69815 15.53125,-18.96875 -0.31464,-4.45843 -0.28395,-8.57493 0.0937,-9.15625 2.41196,-3.71223 9.63613,-4.26912 18.84375,-1.46875 16.06973,6.19958 48.40884,4.68699 59.6875,-1.09375 7.34638,-4.24626 20.92581,1.02003 17,12.4375 -1.09565,11.73305 2.4134,15.94213 14.65625,17.65625 4.125,0.57754 9.075,1.32733 11,1.65625 2.99681,0.51205 3.93074,0.15478 6.40625,-2.4375 5.6793,-5.94716 -0.91611,-12.4365 -12.625,-12.4375 -6.41336,-5.6e-4 -7.61535,-1.26969 -5.78125,-6.09375 2.2776,-5.99053 1.30405,-12.25144 -2.5625,-16.53125 -4.07007,-4.50507 -3.86035,-5.54598 1.375,-7 11.37763,-3.1599 18.1875,0.87671 18.1875,10.75 0,14.09967 8.80823,20.23532 24.78125,14.6875 l 6.15625,-1.71875 3.5,2.5 c 3.5513,2.184 6.76522,2.92566 10.375,-0.3125 9.31404,-9.25256 -10.57114,-19.58216 -26.0625,-12.875 -3.66065,1.68174 -4.56937,0.66029 -5.75,-6.59375 -1.5023,-9.23055 -4.93945,-14.76361 -11.125,-17.875 -1.21469,-0.61099 -2.36817,-1.59731 -2.5625,-2.1875 -0.77337,-2.34879 21.25,-11.21875 21.25,-11.21875 0,0 -0.13321,2.25564 -0.71875,4.5625 -3.63881,14.33576 11.77287,21.83083 22.5625,10.96875 2.6249,-2.64253 4.00012,-3.1742 9.09375,-3.53125 6.80467,0.46075 9.5,-1.18025 9.5,-6.21875 0,-7.99517 -15.4784,-9.48296 -24,-2.3125 l -3,2.5 0,-3.46875 c 0,-15.88917 -15.57759,-20.27086 -32.5,-9.15625 -8.30475,5.45457 -6.85265,5.55409 -16.03125,-1.03125 C 622.9169,374.58424 601.59906,366 594.625,366 c -0.17762,-1.83035 -0.1875,-0.86173 -0.1875,-6 l 0.15625,-6.63642 4.09375,-1.23858 c 16.77378,-6.13591 15.05597,-28.84549 -1.5,-33.5 -1.7475,-0.48927 -3.45924,-0.76878 -5.09375,-0.8125 z m -44.375,8.5 c 1.66366,-0.046 2.90625,0.0937 2.90625,0.0937 13.03065,7.1716 2.4944,16.26888 1.34375,16.96875 -2.82507,1.65684 -10.96501,2.2001 -13.53125,-6.875 -0.78696,-2.47301 1.89495,-8.15758 3.84375,-9.09375 1.70404,-0.8186 3.77384,-1.04778 5.4375,-1.09375 z m 45.9375,0.125 c 0.62855,0.0321 1.22787,0.15354 1.78125,0.375 7.60098,3.04189 9.53416,11.37489 3.34375,15.46875 -7.86227,5.19951 -15.48752,0.4818 -15.34375,-7.65625 0.076,-4.30145 5.81889,-8.41192 10.21875,-8.1875 z m -21.9375,47.375 c 21.37306,0.23167 42.58843,6.83057 60.125,19.75 l 4.875,3.59375 -2.875,1.4375 c -1.58624,0.79255 -5.38125,3.45026 -8.40625,5.90625 -6.66417,5.41061 -17.38008,10.67661 -28.90625,14.15625 -7.7253,2.3322 -10.40701,2.5922 -27.09375,2.78125 -10.16285,-0.12921 -19.74479,0.68047 -29.125,-3.875 -5.83211,-2.25694 -11.6588,-4.908 -12.96875,-5.875 -3.48713,-2.57419 -16.86535,-10.78264 -20.71875,-12.71875 l -3.3125,-1.65625 7.3125,-5.0625 c 18.17813,-12.53229 39.72069,-18.66917 61.09375,-18.4375 z"
         style="fill:#f4570b;fill-opacity:1"
         inkscape:connector-curvature="0"
         sodipodi:nodetypes="sscccccscscccccssssscccsssssssssssccccsccccccsssssssscccccssscsscsccssscccccsccccscccssscscccssccscccs" />
      <path
         id="path3045"
         d="m 557.76311,418.00075 c -0.55741,0.74321 -6.17491,-3.73223 -5.29851,-10.23403 0.061,-7.46733 1.92556,-8.94578 5.36003,-1.44316 2.80705,4.38813 4.15311,5.62742 6.11224,5.62742 3.40975,0 3.35705,-3.3236 -0.0904,-5.70332 -10.76974,-4.67286 -13.92789,-18.93851 -5.77732,-27.85778 6.28984,-6.77624 19.66406,-3.68175 18.35793,5.22931 0.83065,7.32518 -3.46432,8.90277 -6.01725,3.27634 -2.49059,-3.49772 -6.27952,-3.74769 -6.73829,-0.44455 -0.21178,1.52485 1.01408,2.67125 5.15993,4.82543 6.75069,3.50767 8.08398,6.27879 7.36007,15.29723 0.98279,16.61003 -17.02219,15.14353 -18.4284,11.42711 z"
         style="fill:#e80505;fill-opacity:1"
         inkscape:connector-curvature="0" />
      <path
         id="path3043"
         d="m 578.36138,417.35359 c -0.31829,-0.82946 0.3244,-3.21353 1.83495,-4.63327 2.00978,-1.99356 1.98875,-27.63355 0.17478,-29.44752 -1.9857,-2.02006 -1.314,-9.11343 1.92312,-7.15381 5.32454,-0.70759 8.88228,1.79122 10.66086,9.7249 1.86614,11.24278 5.47265,11.10509 6.4942,0.63147 0,-5.48858 5.52232,-7.11327 10.5,-3.08915 4.08957,2.74035 3.28294,4.23921 0.76786,5.46361 -1.51261,2.48814 -0.74787,18.10116 0.73214,18.10116 3.45883,2.37676 -0.84422,5.39758 -4.82824,6.94829 -8.54315,2.57779 -9.82118,1.56104 -6.67176,-3.94829 1.59165,-2.78429 2.01256,-10 0.58333,-10 -0.50416,0 -1.99479,3.23437 -3.3125,7.1875 -3.13643,10.2668 -4.30969,10.59398 -6.31545,2.1225 -3.1623,-10.90608 -3.91413,-11.68522 -4.25695,-4.41157 -0.1681,3.56665 -0.46117,7.31026 0.125,7.89643 3.3553,-0.0606 2.83992,5.18557 -0.70412,5.97353 -3.46366,0.8942 -7.04174,0.36844 -7.70722,-1.36578 z"
         style="fill:#e80505;fill-opacity:1"
         inkscape:connector-curvature="0" />
      <path
         id="path3041"
         d="m 532.52298,413.62452 c -3.72911,-1.55684 -6.01705,-5.55919 -3.14324,-6.67354 1.57006,1.90636 1.32456,-17.16302 0.74037,-19.01849 -4.84424,-4.0606 -0.77086,-4.97378 9.64359,-8.25825 l 10.46442,-3.50415 1.1106,2.4375 c 2.92086,6.44444 0.83566,14.22912 -3.35928,8.37169 -3.82368,-3.59216 -7.95028,-2.49294 -8.34049,2.2217 -0.26653,3.22038 -0.0194,3.75 1.75,3.75 1.3937,0 2.06037,-0.64713 2.06037,-2 0.006,-5.2297 4.7011,-2.23818 3.95967,5.60714 0.16951,9.27968 -2.60903,10.73267 -3.67686,9.28906 0,0 -1.85904,-5.8962 -2.75784,-5.8962 -2.06774,0 -2.08798,7.28788 -0.025,9 5.74622,6.43662 -1.47508,7.64031 -8.42631,4.67354 z"
         style="fill:#e80505;fill-opacity:1"
         inkscape:connector-curvature="0" />
      <path
         id="path3037"
         d="m 543.94644,338.28008 c -2.8535,-3.15308 -0.69254,-8.17126 3.51876,-8.17126 2.00782,-0.43954 5.03961,2.34691 4.82625,5.17375 0,4.0186 -5.60041,6.03026 -8.34501,2.99751 z"
         style="fill:#000000"
         inkscape:connector-curvature="0" />
      <path
         id="path3031"
         d="m 589.8646,338.58804 c -2.4733,-2.70282 -1.07715,-7.38841 2.30901,-7.69936 2.14683,-0.30744 5.14515,0.74544 5.27568,3.94448 0.14517,4.87716 -5.01668,6.49665 -7.58469,3.75488 z"
         style="fill:#000000"
         inkscape:connector-curvature="0" />
    </g>
  </g>
</svg>
